<svg id="visual" viewBox="0 0 1920 1080" width="1920" height="1080" xmlns="http://www.w3.org/2000/svg" xmlns:xlink="http://www.w3.org/1999/xlink" version="1.1"><rect x="0" y="0" width="1920" height="1080" fill="#140021"></rect><path d="M0 817L274 809L549 899L823 837L1097 826L1371 888L1646 883L1920 817L1920 1081L1646 1081L1371 1081L1097 1081L823 1081L549 1081L274 1081L0 1081Z" fill="#9900ff"></path><path d="M0 914L274 878L549 879L823 878L1097 886L1371 851L1646 893L1920 932L1920 1081L1646 1081L1371 1081L1097 1081L823 1081L549 1081L274 1081L0 1081Z" fill="#8b00e8"></path><path d="M0 909L274 889L549 901L823 960L1097 895L1371 945L1646 920L1920 893L1920 1081L1646 1081L1371 1081L1097 1081L823 1081L549 1081L274 1081L0 1081Z" fill="#7e00d1"></path><path d="M0 997L274 990L549 951L823 983L1097 956L1371 937L1646 954L1920 982L1920 1081L1646 1081L1371 1081L1097 1081L823 1081L549 1081L274 1081L0 1081Z" fill="#7000bb"></path><path d="M0 975L274 1023L549 1018L823 1008L1097 982L1371 1013L1646 979L1920 983L1920 1081L1646 1081L1371 1081L1097 1081L823 1081L549 1081L274 1081L0 1081Z" fill="#6300a5"></path><path d="M0 1050L274 1033L549 1033L823 1029L1097 1046L1371 1019L1646 1051L1920 1026L1920 1081L1646 1081L1371 1081L1097 1081L823 1081L549 1081L274 1081L0 1081Z" fill="#560090"></path></svg>