<svg id="visual" viewBox="0 0 1920 1080" width="1920" height="1080" xmlns="http://www.w3.org/2000/svg" xmlns:xlink="http://www.w3.org/1999/xlink" version="1.1"><path d="M0 77L113 77L226 33L339 12L452 44L565 98L678 98L791 55L904 77L1016 23L1129 87L1242 66L1355 55L1468 44L1581 23L1694 55L1807 66L1920 77L1920 0L1807 0L1694 0L1581 0L1468 0L1355 0L1242 0L1129 0L1016 0L904 0L791 0L678 0L565 0L452 0L339 0L226 0L113 0L0 0Z" fill="#894949"></path><path d="M0 314L113 541L226 390L339 141L452 347L565 347L678 368L791 87L904 347L1016 433L1129 336L1242 476L1355 552L1468 120L1581 195L1694 303L1807 141L1920 282L1920 75L1807 64L1694 53L1581 21L1468 42L1355 53L1242 64L1129 85L1016 21L904 75L791 53L678 96L565 96L452 42L339 10L226 31L113 75L0 75Z" fill="#944b4a"></path><path d="M0 595L113 681L226 563L339 465L452 563L565 455L678 552L791 336L904 541L1016 552L1129 476L1242 638L1355 660L1468 563L1581 325L1694 455L1807 498L1920 465L1920 280L1807 139L1694 301L1581 193L1468 118L1355 550L1242 474L1129 334L1016 431L904 345L791 85L678 366L565 345L452 345L339 139L226 388L113 539L0 312Z" fill="#9e4d4b"></path><path d="M0 692L113 757L226 595L339 617L452 638L565 638L678 779L791 498L904 681L1016 649L1129 681L1242 681L1355 725L1468 800L1581 509L1694 692L1807 584L1920 649L1920 463L1807 496L1694 453L1581 323L1468 561L1355 658L1242 636L1129 474L1016 550L904 539L791 334L678 550L565 453L452 561L339 463L226 561L113 679L0 593Z" fill="#a94f4c"></path><path d="M0 822L113 919L226 671L339 725L452 746L565 692L678 822L791 617L904 746L1016 725L1129 725L1242 800L1355 779L1468 843L1581 638L1694 779L1807 725L1920 757L1920 647L1807 582L1694 690L1581 507L1468 798L1355 723L1242 679L1129 679L1016 647L904 679L791 496L678 777L565 636L452 636L339 615L226 593L113 755L0 690Z" fill="#b3514c"></path><path d="M0 843L113 962L226 833L339 843L452 887L565 843L678 919L791 768L904 843L1016 854L1129 811L1242 876L1355 876L1468 876L1581 811L1694 854L1807 887L1920 833L1920 755L1807 723L1694 777L1581 636L1468 841L1355 777L1242 798L1129 723L1016 723L904 744L791 615L678 820L565 690L452 744L339 723L226 669L113 917L0 820Z" fill="#bd534c"></path><path d="M0 973L113 1049L226 941L339 887L452 951L565 941L678 941L791 865L904 919L1016 919L1129 919L1242 897L1355 919L1468 951L1581 897L1694 876L1807 919L1920 908L1920 831L1807 885L1694 852L1581 809L1468 874L1355 874L1242 874L1129 809L1016 852L904 841L791 766L678 917L565 841L452 885L339 841L226 831L113 960L0 841Z" fill="#c8564b"></path><path d="M0 984L113 1059L226 984L339 951L452 1049L565 1016L678 1027L791 962L904 1016L1016 984L1129 1027L1242 995L1355 941L1468 1027L1581 973L1694 951L1807 1016L1920 973L1920 906L1807 917L1694 874L1581 895L1468 949L1355 917L1242 895L1129 917L1016 917L904 917L791 863L678 939L565 939L452 949L339 885L226 939L113 1047L0 971Z" fill="#d2584a"></path><path d="M0 1081L113 1081L226 1081L339 1081L452 1081L565 1081L678 1081L791 1081L904 1081L1016 1081L1129 1081L1242 1081L1355 1081L1468 1081L1581 1081L1694 1081L1807 1081L1920 1081L1920 971L1807 1014L1694 949L1581 971L1468 1025L1355 939L1242 993L1129 1025L1016 982L904 1014L791 960L678 1025L565 1014L452 1047L339 949L226 982L113 1057L0 982Z" fill="#dc5b49"></path></svg>