<svg id="visual" width="1920" height="1080" xmlns="http://www.w3.org/2000/svg" version="1.1"><path fill="#140021" d="M0 0h1920v1080H0z"/><path d="m0 817 274-8 275 90 274-62 274-11 274 62 275-5 274-66v264H0Z" fill="#90f"/><path d="m0 914 274-36 275 1 274-1 274 8 274-35 275 42 274 39v149H0Z" fill="#8b00e8"/><path d="m0 909 274-20 275 12 274 59 274-65 274 50 275-25 274-27v188H0Z" fill="#7e00d1"/><path d="m0 997 274-7 275-39 274 32 274-27 274-19 275 17 274 28v99H0Z" fill="#7000bb"/><path d="m0 975 274 48 275-5 274-10 274-26 274 31 275-34 274 4v98H0Z" fill="#6300a5"/><path d="m0 1050 274-17h275l274-4 274 17 274-27 275 32 274-25v55H0Z" fill="#560090"/></svg>